<svg xmlns="http://www.w3.org/2000/svg" viewBox="0 0 32 32">
  <!-- Parchment background -->
  <rect width="32" height="32" rx="6" fill="#f5f0e8"/>
  <!-- Quill feather body -->
  <path d="M26 3 C26 3 17 7 12 15 C8 21 8 28 8 28 C8 28 11 25 14 24 C14 24 13 29 11 31 C11 31 16 29 19 24 C22 19 23 14 23 14 C25 11 27 7 26 3 Z" fill="#4a6fa5"/>
  <!-- Feather highlight -->
  <path d="M26 3 C26 3 21 8 18 13 C15 18 14 24 14 24 C16 22 20 19 23 14 C25 11 27 7 26 3 Z" fill="#6b8fc5"/>
  <!-- Quill nib -->
  <path d="M8 28 L11 23 L14 24 Z" fill="#1a1a2e"/>
  <!-- Ink line -->
  <line x1="4" y1="27" x2="9" y2="27" stroke="#1a1a2e" stroke-width="1.5" stroke-linecap="round"/>
</svg>